<svg width="247" height="247" viewBox="0 0 247 247" fill="none" xmlns="http://www.w3.org/2000/svg">
<g clip-path="url(#clip0_1495_3284)">
<path d="M0.00195312 46.1818C0.00195312 20.6763 20.6783 0 46.1838 0H200.123C225.629 0 246.305 20.6763 246.305 46.1818V200.121C246.305 225.627 225.629 246.303 200.123 246.303H46.1838C20.6783 246.303 0.00195312 225.627 0.00195312 200.121V46.1818Z" fill="#ACEF81"/>
<path d="M0.00195312 46.1818C0.00195312 20.6763 20.6783 0 46.1838 0H200.123C225.629 0 246.305 20.6763 246.305 46.1818V200.121C246.305 225.627 225.629 246.303 200.123 246.303H46.1838C20.6783 246.303 0.00195312 225.627 0.00195312 200.121V46.1818Z" fill="#ACEF81"/>
<path d="M99.8793 57.5474C63.8872 57.5474 35.3418 87.3339 35.3418 123.326C35.3418 159.318 63.8872 189.105 99.8793 189.105C135.871 189.105 165.658 160.559 165.658 123.326C165.658 86.0928 137.113 57.5474 99.8793 57.5474ZM99.8793 166.765C77.5394 166.765 57.6817 146.907 57.6817 123.326C57.6817 100.986 77.5394 81.1284 99.8793 81.1284C123.46 81.1284 142.077 100.986 142.077 123.326C142.077 146.907 123.46 166.765 99.8793 166.765Z" fill="#0D41D2"/>
<path d="M194.686 189.105C202.912 189.105 209.58 182.437 209.58 174.211C209.58 165.986 202.912 159.318 194.686 159.318C186.461 159.318 179.793 165.986 179.793 174.211C179.793 182.437 186.461 189.105 194.686 189.105Z" fill="#0D41D2"/>
<path d="M203.996 145.666L210.201 57.5474H179.174L185.379 145.666H203.996Z" fill="#0D41D2"/>
</g>
<defs>
<clipPath id="clip0_1495_3284">
<rect width="246.303" height="246.303" fill="white"/>
</clipPath>
</defs>
</svg>
