<?xml version="1.0" standalone="no"?>
<!DOCTYPE svg PUBLIC "-//W3C//DTD SVG 20010904//EN"
 "http://www.w3.org/TR/2001/REC-SVG-20010904/DTD/svg10.dtd">
<svg version="1.0" xmlns="http://www.w3.org/2000/svg"
 width="700.000000pt" height="700.000000pt" viewBox="0 0 700.000000 700.000000"
 preserveAspectRatio="xMidYMid meet">
<metadata>
Created by potrace 1.14, written by Peter Selinger 2001-2017
</metadata>
<g transform="translate(0.000000,700.000000) scale(0.100000,-0.100000)"
fill="#000000" stroke="none">
<path d="M2640 5359 c-213 -24 -398 -78 -597 -174 -922 -448 -1302 -1574 -848
-2510 137 -284 366 -549 629 -726 109 -73 319 -177 441 -217 466 -153 978
-111 1425 119 501 257 848 715 966 1274 32 148 44 455 24 612 -89 727 -556
1306 -1235 1532 -257 85 -553 118 -805 90z m376 -674 c432 -70 808 -391 947
-808 58 -171 77 -394 49 -563 -44 -265 -173 -516 -363 -702 -73 -73 -210 -172
-298 -217 -148 -74 -337 -117 -516 -118 -190 0 -343 37 -513 123 -418 214
-684 641 -683 1100 0 320 121 602 360 840 280 279 651 405 1017 345z"/>
<path d="M5080 5353 c0 -10 38 -560 85 -1222 47 -662 85 -1216 85 -1232 l0
-29 264 0 264 0 7 63 c3 34 41 575 85 1202 44 627 81 1161 84 1188 l5 47 -439
0 c-412 0 -440 -1 -440 -17z"/>
<path d="M5395 2467 c-117 -39 -202 -112 -255 -221 -30 -60 -35 -81 -38 -162
-4 -79 -1 -104 19 -158 40 -116 133 -212 249 -258 43 -17 76 -22 150 -22 89
-1 100 2 170 35 133 63 217 174 242 318 31 180 -68 365 -240 447 -48 24 -72
28 -157 31 -64 2 -115 -2 -140 -10z"/>
</g>
</svg>
